<?xml version="1.0" encoding="UTF-8" ?>
<!DOCTYPE svg PUBLIC "-//W3C//DTD SVG 1.1//EN" "http://www.w3.org/Graphics/SVG/1.1/DTD/svg11.dtd">
<svg width="605" height="605" viewBox="400 74.5 605 605" version="1.1" xmlns="http://www.w3.org/2000/svg">
<g id="#e0e0e2ff">
</g>
<g id="#e9eaeaff">
</g>
<g id="#dedee0ff">
</g>
<g id="#5ea8c3ff">
<path fill="#5ea8c3" opacity="1.00" d=" M 581.03 116.36 C 624.41 96.40 673.03 87.23 720.69 90.68 C 736.13 95.44 751.75 100.09 765.77 108.39 C 806.59 132.79 835.85 173.78 849.51 218.97 C 845.28 221.38 846.15 227.79 840.94 229.10 C 840.84 230.14 840.77 231.17 840.70 232.21 C 833.57 230.57 827.01 228.18 820.82 224.39 C 814.00 224.41 807.14 221.60 800.43 223.60 C 800.93 224.96 801.42 226.33 801.93 227.70 C 801.48 228.01 800.57 228.63 800.12 228.94 C 798.72 228.13 797.32 227.33 795.93 226.52 C 795.43 227.88 794.94 229.23 794.45 230.59 C 791.53 221.87 788.36 213.20 784.40 204.89 C 769.68 172.04 745.41 142.56 713.03 125.96 C 691.13 114.25 665.74 109.38 641.06 111.87 C 622.63 113.92 604.55 118.89 587.41 125.94 C 585.33 123.92 583.01 122.16 580.39 120.93 C 580.59 119.41 580.81 117.88 581.03 116.36 Z" />
</g>
<g id="#84c8c6ff">
<path fill="#84c8c6" opacity="1.00" d=" M 720.69 90.68 C 781.59 92.64 841.20 116.17 888.73 154.00 C 894.59 158.77 900.67 163.33 905.98 168.75 C 923.88 191.42 940.21 215.98 949.29 243.66 C 954.70 261.93 958.32 280.89 958.13 300.01 C 958.94 335.37 947.94 370.48 929.03 400.20 C 918.09 417.83 903.74 433.12 887.96 446.49 C 886.15 442.32 888.03 438.32 890.00 434.66 C 888.46 433.57 886.94 432.48 885.42 431.38 C 886.28 424.73 878.33 423.69 877.04 418.01 C 874.18 419.07 871.38 420.28 868.81 421.93 C 911.87 383.10 936.11 322.99 927.37 265.16 C 923.01 231.56 908.60 199.26 886.22 173.78 C 862.47 145.58 829.16 127.13 794.59 115.52 C 785.09 112.73 775.62 109.61 765.77 108.39 C 751.75 100.09 736.13 95.44 720.69 90.68 Z" />
</g>
<g id="#eeefefff">
<path fill="#eeefef" opacity="1.00" d=" M 765.77 108.39 C 775.62 109.61 785.09 112.73 794.59 115.52 C 829.16 127.13 862.47 145.58 886.22 173.78 C 908.60 199.26 923.01 231.56 927.37 265.16 C 926.22 266.92 925.15 268.73 924.13 270.56 C 922.38 270.53 920.63 270.49 918.89 270.45 C 919.67 273.49 920.61 276.50 921.57 279.49 C 918.17 276.86 916.58 272.42 912.60 270.51 C 913.23 273.76 913.80 277.02 914.04 280.33 C 910.12 276.62 908.44 271.16 904.14 267.78 C 904.69 271.36 905.93 275.11 904.31 278.61 C 901.69 275.92 899.16 273.17 896.46 270.58 C 897.77 277.05 899.09 283.59 898.48 290.24 C 897.06 288.87 895.66 287.50 894.28 286.13 C 894.90 289.93 895.44 293.75 895.88 297.58 C 888.41 301.14 887.79 286.45 880.03 291.60 C 880.73 294.70 881.44 297.80 882.18 300.90 C 880.49 299.59 878.80 298.30 877.12 296.99 C 878.06 300.14 878.77 303.36 879.35 306.59 C 877.12 305.56 874.86 304.61 872.56 303.75 C 872.66 306.26 872.74 308.76 872.82 311.27 C 870.45 307.30 866.46 305.09 861.96 304.40 C 861.17 308.45 863.35 314.92 857.49 315.56 C 858.53 308.18 859.42 300.76 859.56 293.30 C 860.84 268.18 856.77 242.98 849.51 218.97 C 835.85 173.78 806.59 132.79 765.77 108.39 Z" />
<path fill="#eeefef" opacity="1.00" d=" M 750.77 196.11 C 760.10 196.98 769.53 205.28 778.73 200.64 C 780.65 202.00 782.57 203.38 784.40 204.89 C 788.36 213.20 791.53 221.87 794.45 230.59 C 799.14 245.64 802.55 261.10 804.42 276.76 C 806.52 295.57 806.47 314.61 803.62 333.34 C 803.33 326.20 804.02 319.06 803.55 311.93 C 801.34 273.33 784.52 236.39 758.99 207.63 C 759.42 206.95 759.87 206.28 760.34 205.61 C 756.58 203.09 752.71 200.35 750.77 196.11 Z" />
</g>
<g id="#e7e8eaff">
<path fill="#e7e8ea" opacity="1.00" d=" M 641.06 111.87 C 665.74 109.38 691.13 114.25 713.03 125.96 C 745.41 142.56 769.68 172.04 784.40 204.89 C 782.57 203.38 780.65 202.00 778.73 200.64 C 769.53 205.28 760.10 196.98 750.77 196.11 C 752.71 200.35 756.58 203.09 760.34 205.61 C 759.87 206.28 759.42 206.95 758.99 207.63 C 737.33 184.49 710.17 166.33 680.20 155.93 C 667.47 151.28 654.14 148.45 640.72 146.78 C 621.70 144.38 602.32 144.48 583.43 147.85 C 583.14 147.33 582.57 146.28 582.28 145.76 C 580.55 145.05 578.84 144.34 577.12 143.64 C 579.03 141.99 580.94 140.35 582.87 138.72 C 582.23 137.94 581.61 137.16 580.99 136.38 C 578.12 137.57 575.17 138.53 572.18 139.32 C 571.23 137.72 570.29 136.13 569.36 134.54 C 575.25 131.42 581.29 128.58 587.41 125.94 C 604.55 118.89 622.63 113.92 641.06 111.87 Z" />
</g>
<g id="#d7d8daff">
</g>
<g id="#5aa4bfff">
<path fill="#5aa4bf" opacity="1.00" d=" M 429.76 275.11 C 457.22 205.36 512.76 147.21 581.03 116.36 C 580.81 117.88 580.59 119.41 580.39 120.93 C 583.01 122.16 585.33 123.92 587.41 125.94 C 581.29 128.58 575.25 131.42 569.36 134.54 C 549.80 145.04 531.38 157.87 515.13 173.01 C 516.90 172.11 518.67 171.21 520.43 170.28 C 521.49 174.62 519.78 179.38 523.07 183.16 C 522.09 183.74 521.10 184.32 520.14 184.92 C 516.42 189.39 511.28 193.21 511.85 199.89 C 510.63 200.85 509.41 201.81 508.18 202.75 C 513.54 204.91 514.10 210.73 514.74 215.72 C 517.91 214.87 521.10 214.04 524.22 213.00 C 511.34 219.76 498.36 226.48 486.90 235.57 C 471.44 247.71 457.28 261.79 446.28 278.15 C 444.21 279.85 442.02 281.38 439.85 282.95 C 436.15 280.81 432.63 278.31 429.76 275.11 Z" />
</g>
<g id="#ecededff">
<path fill="#eceded" opacity="1.00" d=" M 515.13 173.01 C 531.38 157.87 549.80 145.04 569.36 134.54 C 570.29 136.13 571.23 137.72 572.18 139.32 C 575.17 138.53 578.12 137.57 580.99 136.38 C 581.61 137.16 582.23 137.94 582.87 138.72 C 580.94 140.35 579.03 141.99 577.12 143.64 C 578.84 144.34 580.55 145.05 582.28 145.76 C 582.57 146.28 583.14 147.33 583.43 147.85 C 576.59 149.07 569.80 150.52 563.15 152.53 C 548.16 156.36 533.98 162.89 520.43 170.28 C 518.67 171.21 516.90 172.11 515.13 173.01 Z" />
</g>
<g id="#f0f1f1ff">
</g>
<g id="#71b8c3ff">
<path fill="#71b8c3" opacity="1.00" d=" M 583.43 147.85 C 602.32 144.48 621.70 144.38 640.72 146.78 C 637.74 152.75 641.31 162.21 648.22 163.37 C 643.43 167.61 645.87 174.50 646.65 179.89 C 648.11 185.71 645.23 191.30 644.25 196.94 C 645.51 198.34 646.77 199.74 648.12 201.07 C 635.59 198.50 622.93 195.94 610.09 195.90 C 602.57 195.97 595.03 195.53 587.54 196.35 C 588.21 186.90 587.26 177.46 586.79 168.02 C 586.75 163.24 580.64 163.04 578.48 159.56 C 575.31 153.92 567.53 156.75 563.15 152.53 C 569.80 150.52 576.59 149.07 583.43 147.85 Z" />
</g>
<g id="#79bfc5ff">
<path fill="#79bfc5" opacity="1.00" d=" M 640.72 146.78 C 654.14 148.45 667.47 151.28 680.20 155.93 C 681.06 165.28 680.65 174.66 679.96 184.00 C 679.38 189.58 682.51 194.84 681.54 200.41 C 680.97 204.27 680.49 208.16 680.65 212.08 C 670.12 207.55 659.29 203.69 648.12 201.07 C 646.77 199.74 645.51 198.34 644.25 196.94 C 645.23 191.30 648.11 185.71 646.65 179.89 C 645.87 174.50 643.43 167.61 648.22 163.37 C 641.31 162.21 637.74 152.75 640.72 146.78 Z" />
</g>
<g id="#67afc1ff">
<path fill="#67afc1" opacity="1.00" d=" M 520.43 170.28 C 533.98 162.89 548.16 156.36 563.15 152.53 C 567.53 156.75 575.31 153.92 578.48 159.56 C 580.64 163.04 586.75 163.24 586.79 168.02 C 587.26 177.46 588.21 186.90 587.54 196.35 C 565.72 198.68 544.28 204.07 524.22 213.00 C 521.10 214.04 517.91 214.87 514.74 215.72 C 514.10 210.73 513.54 204.91 508.18 202.75 C 509.41 201.81 510.63 200.85 511.85 199.89 C 511.28 193.21 516.42 189.39 520.14 184.92 C 521.10 184.32 522.09 183.74 523.07 183.16 C 519.78 179.38 521.49 174.62 520.43 170.28 Z" />
</g>
<g id="#83c7c5ff">
<path fill="#83c7c5" opacity="1.00" d=" M 680.20 155.93 C 710.17 166.33 737.33 184.49 758.99 207.63 C 784.52 236.39 801.34 273.33 803.55 311.93 C 804.02 319.06 803.33 326.20 803.62 333.34 C 802.75 341.42 800.78 349.32 799.00 357.23 C 793.48 380.96 780.42 402.39 762.83 419.10 C 755.34 425.04 747.64 430.95 738.80 434.75 C 729.33 438.62 719.38 441.99 709.02 441.76 C 713.38 440.67 717.82 439.97 722.22 439.06 C 733.33 435.99 742.96 429.07 751.35 421.36 C 780.27 394.46 785.77 350.30 774.41 313.87 C 766.72 288.69 752.30 265.79 733.53 247.39 C 722.57 237.03 710.40 227.86 697.12 220.70 C 691.83 217.46 686.39 214.45 680.65 212.08 C 680.49 208.16 680.97 204.27 681.54 200.41 C 682.51 194.84 679.38 189.58 679.96 184.00 C 680.65 174.66 681.06 165.28 680.20 155.93 Z" />
</g>
<g id="#5da8c2ff">
<path fill="#5da8c2" opacity="1.00" d=" M 905.98 168.75 C 923.43 184.60 938.34 203.03 951.34 222.65 C 967.77 248.65 980.80 276.87 988.98 306.55 C 992.41 319.42 995.25 332.48 996.45 345.76 C 996.33 374.68 990.05 403.82 976.29 429.38 C 965.28 427.92 960.31 416.57 950.81 412.19 C 944.28 406.89 936.36 404.11 929.03 400.20 C 947.94 370.48 958.94 335.37 958.13 300.01 C 958.32 280.89 954.70 261.93 949.29 243.66 C 940.21 215.98 923.88 191.42 905.98 168.75 Z" />
</g>
<g id="#4388b5ff">
<path fill="#4388b5" opacity="1.00" d=" M 587.54 196.35 C 595.03 195.53 602.57 195.97 610.09 195.90 C 605.23 199.25 603.63 205.03 600.10 209.43 C 601.59 211.19 601.40 213.67 600.15 215.50 C 596.86 215.88 593.41 215.22 590.34 216.76 C 590.96 221.25 593.13 225.23 595.49 229.02 C 570.77 230.60 546.63 237.73 524.41 248.55 C 519.42 248.34 513.84 252.69 509.70 248.29 C 506.90 245.44 502.78 247.36 499.47 246.20 C 494.84 242.93 493.81 235.38 486.90 235.57 C 498.36 226.48 511.34 219.76 524.22 213.00 C 544.28 204.07 565.72 198.68 587.54 196.35 Z" />
</g>
<g id="#4892b9ff">
<path fill="#4892b9" opacity="1.00" d=" M 610.09 195.90 C 622.93 195.94 635.59 198.50 648.12 201.07 C 659.29 203.69 670.12 207.55 680.65 212.08 C 686.39 214.45 691.83 217.46 697.12 220.70 C 698.48 222.25 699.75 223.87 701.05 225.48 C 699.32 227.99 696.54 227.73 693.94 226.97 C 691.28 229.58 688.70 232.27 686.14 234.97 C 686.57 236.43 687.00 237.90 687.44 239.36 C 684.44 239.70 681.82 238.09 679.06 237.27 C 676.18 237.48 673.90 239.60 671.52 241.03 C 647.35 231.88 621.34 227.37 595.49 229.02 C 593.13 225.23 590.96 221.25 590.34 216.76 C 593.41 215.22 596.86 215.88 600.15 215.50 C 601.40 213.67 601.59 211.19 600.10 209.43 C 603.63 205.03 605.23 199.25 610.09 195.90 Z" />
</g>
<g id="#d4d5d6ff">
</g>
<g id="#5aa4c2ff">
<path fill="#5aa4c2" opacity="1.00" d=" M 840.94 229.10 C 846.15 227.79 845.28 221.38 849.51 218.97 C 856.77 242.98 860.84 268.18 859.56 293.30 C 859.03 290.21 859.71 286.07 856.64 284.19 C 855.79 285.00 854.98 285.81 854.15 286.62 C 855.52 286.64 856.89 286.68 858.28 286.71 C 857.94 288.84 857.68 291.50 855.25 292.25 C 849.02 294.11 843.59 288.57 837.27 289.68 C 830.94 284.55 822.17 285.09 814.92 282.07 C 811.53 280.09 808.22 277.89 804.42 276.76 C 802.55 261.10 799.14 245.64 794.45 230.59 C 794.94 229.23 795.43 227.88 795.93 226.52 C 797.32 227.33 798.72 228.13 800.12 228.94 C 800.57 228.63 801.48 228.01 801.93 227.70 C 801.42 226.33 800.93 224.96 800.43 223.60 C 807.14 221.60 814.00 224.41 820.82 224.39 C 827.01 228.18 833.57 230.57 840.70 232.21 C 840.77 231.17 840.84 230.14 840.94 229.10 Z" />
</g>
<g id="#4f99bbff">
<path fill="#4f99bb" opacity="1.00" d=" M 697.12 220.70 C 710.40 227.86 722.57 237.03 733.53 247.39 C 730.73 251.35 725.57 252.00 722.00 254.99 C 718.50 257.75 714.81 260.25 710.91 262.39 C 704.03 257.54 696.83 253.13 689.38 249.22 C 683.58 246.17 677.61 243.45 671.52 241.03 C 673.90 239.60 676.18 237.48 679.06 237.27 C 681.82 238.09 684.44 239.70 687.44 239.36 C 687.00 237.90 686.57 236.43 686.14 234.97 C 688.70 232.27 691.28 229.58 693.94 226.97 C 696.54 227.73 699.32 227.99 701.05 225.48 C 699.75 223.87 698.48 222.25 697.12 220.70 Z" />
</g>
<g id="#efefefff">
<path fill="#efefef" opacity="1.00" d=" M 524.41 248.55 C 546.63 237.73 570.77 230.60 595.49 229.02 C 621.34 227.37 647.35 231.88 671.52 241.03 C 677.61 243.45 683.58 246.17 689.38 249.22 C 683.04 252.77 676.34 255.62 670.06 259.27 C 672.63 260.17 675.38 261.09 676.97 263.49 C 676.13 264.49 675.33 265.50 674.51 266.51 C 675.65 267.06 676.80 267.60 677.95 268.16 C 675.85 268.83 673.76 269.52 671.68 270.25 C 673.68 273.13 677.14 272.76 680.24 272.70 C 674.66 274.54 668.33 273.69 663.37 277.30 C 618.64 276.03 575.14 295.59 543.20 326.30 C 543.42 323.03 543.67 319.76 543.94 316.49 C 542.52 316.84 541.11 317.20 539.69 317.56 C 540.36 314.97 541.41 312.10 539.54 309.75 C 537.88 312.94 536.25 316.21 533.67 318.78 C 533.73 311.63 538.42 305.49 539.99 298.60 C 538.65 299.01 537.32 299.41 536.00 299.82 C 536.25 296.12 536.54 292.44 536.71 288.75 C 533.49 289.55 531.53 292.27 529.58 294.72 C 526.26 292.55 525.90 288.83 526.76 285.25 C 525.24 286.45 523.70 287.64 522.17 288.82 C 522.27 287.07 522.38 285.33 522.49 283.59 C 521.53 283.57 520.57 283.55 519.62 283.54 C 519.64 282.51 519.66 281.48 519.69 280.45 C 518.19 281.36 516.68 282.27 515.18 283.17 C 516.24 279.01 517.57 274.89 517.93 270.59 C 515.55 272.45 513.99 275.08 511.84 277.16 C 509.02 276.38 507.71 272.99 505.06 271.66 C 505.28 269.82 505.51 267.97 505.74 266.13 C 500.90 269.75 499.60 277.31 493.00 278.40 C 491.76 276.35 490.58 274.27 489.49 272.14 C 500.14 262.91 512.08 255.32 524.41 248.55 Z" />
</g>
<g id="#4083b2ff">
<path fill="#4083b2" opacity="1.00" d=" M 446.28 278.15 C 457.28 261.79 471.44 247.71 486.90 235.57 C 493.81 235.38 494.84 242.93 499.47 246.20 C 502.78 247.36 506.90 245.44 509.70 248.29 C 513.84 252.69 519.42 248.34 524.41 248.55 C 512.08 255.32 500.14 262.91 489.49 272.14 C 465.56 293.15 446.85 320.25 436.53 350.43 C 422.24 391.05 422.67 436.29 436.33 477.01 C 440.00 488.83 444.90 500.21 450.40 511.29 C 446.78 512.79 443.51 515.01 440.97 518.01 C 429.61 495.90 421.44 472.26 415.78 448.08 C 411.47 426.07 408.50 403.68 409.30 381.21 C 413.71 344.69 424.64 308.29 446.28 278.15 Z" />
</g>
<g id="#559fbdff">
<path fill="#559fbd" opacity="1.00" d=" M 733.53 247.39 C 752.30 265.79 766.72 288.69 774.41 313.87 C 774.01 314.99 773.63 316.11 773.26 317.24 C 768.79 318.55 764.25 319.64 759.68 320.52 C 754.12 308.32 746.81 296.91 737.91 286.88 C 729.92 277.68 720.84 269.45 710.91 262.39 C 714.81 260.25 718.50 257.75 722.00 254.99 C 725.57 252.00 730.73 251.35 733.53 247.39 Z" />
<path fill="#559fbd" opacity="1.00" d=" M 929.03 400.20 C 936.36 404.11 944.28 406.89 950.81 412.19 C 960.31 416.57 965.28 427.92 976.29 429.38 C 963.82 453.16 945.73 473.99 924.11 489.88 C 916.64 489.49 914.96 481.10 910.32 476.82 C 900.40 469.85 893.63 457.80 880.79 455.78 C 882.15 454.28 883.49 452.75 884.79 451.19 C 884.34 451.10 883.43 450.92 882.97 450.83 C 884.66 449.42 886.28 447.92 887.96 446.49 C 903.74 433.12 918.09 417.83 929.03 400.20 Z" />
</g>
<g id="#e6e6e8ff">
<path fill="#e6e6e8" opacity="1.00" d=" M 689.38 249.22 C 696.83 253.13 704.03 257.54 710.91 262.39 C 720.84 269.45 729.92 277.68 737.91 286.88 C 736.26 289.99 733.05 291.10 729.79 291.61 C 729.02 293.83 728.28 296.06 727.57 298.31 C 709.03 284.68 686.03 278.84 663.37 277.30 C 668.33 273.69 674.66 274.54 680.24 272.70 C 677.14 272.76 673.68 273.13 671.68 270.25 C 673.76 269.52 675.85 268.83 677.95 268.16 C 676.80 267.60 675.65 267.06 674.51 266.51 C 675.33 265.50 676.13 264.49 676.97 263.49 C 675.38 261.09 672.63 260.17 670.06 259.27 C 676.34 255.62 683.04 252.77 689.38 249.22 Z" />
</g>
<g id="#e2e3e5ff">
<path fill="#e2e3e5" opacity="1.00" d=" M 493.00 278.40 C 499.60 277.31 500.90 269.75 505.74 266.13 C 505.51 267.97 505.28 269.82 505.06 271.66 C 507.71 272.99 509.02 276.38 511.84 277.16 C 513.99 275.08 515.55 272.45 517.93 270.59 C 517.57 274.89 516.24 279.01 515.18 283.17 C 516.68 282.27 518.19 281.36 519.69 280.45 C 519.66 281.48 519.64 282.51 519.62 283.54 C 520.57 283.55 521.53 283.57 522.49 283.59 C 522.38 285.33 522.27 287.07 522.17 288.82 C 523.70 287.64 525.24 286.45 526.76 285.25 C 525.90 288.83 526.26 292.55 529.58 294.72 C 531.53 292.27 533.49 289.55 536.71 288.75 C 536.54 292.44 536.25 296.12 536.00 299.82 C 537.32 299.41 538.65 299.01 539.99 298.60 C 538.42 305.49 533.73 311.63 533.67 318.78 C 536.25 316.21 537.88 312.94 539.54 309.75 C 541.41 312.10 540.36 314.97 539.69 317.56 C 541.11 317.20 542.52 316.84 543.94 316.49 C 543.67 319.76 543.42 323.03 543.20 326.30 C 539.77 329.58 536.65 333.16 533.60 336.79 C 519.50 351.94 508.42 369.78 499.93 388.61 C 492.73 404.38 487.54 421.10 484.80 438.23 C 483.90 443.66 482.98 449.09 482.40 454.56 C 480.41 452.02 478.56 449.36 476.75 446.70 C 474.94 449.24 474.03 452.22 473.56 455.27 C 472.66 455.05 471.75 454.83 470.87 454.62 C 471.81 461.87 473.56 468.99 474.56 476.23 C 473.01 474.53 471.45 472.85 469.90 471.17 C 468.57 471.47 467.25 471.78 465.94 472.10 C 464.00 469.07 462.20 465.96 460.40 462.86 C 457.68 470.09 459.55 477.69 461.85 484.73 C 460.57 484.34 459.29 483.95 458.01 483.56 C 458.71 486.78 459.33 490.02 459.69 493.29 C 453.38 488.00 449.80 479.73 445.47 472.66 C 443.94 475.95 444.83 479.63 444.91 483.10 C 442.84 481.04 440.79 478.96 438.76 476.86 C 438.16 476.90 436.94 476.97 436.33 477.01 C 422.67 436.29 422.24 391.05 436.53 350.43 C 446.85 320.25 465.56 293.15 489.49 272.14 C 490.58 274.27 491.76 276.35 493.00 278.40 Z" />
</g>
<g id="#e4e5e7ff">
<path fill="#e4e5e7" opacity="1.00" d=" M 924.13 270.56 C 925.15 268.73 926.22 266.92 927.37 265.16 C 936.11 322.99 911.87 383.10 868.81 421.93 C 861.44 427.94 854.17 434.11 846.08 439.14 C 843.66 437.46 842.24 434.91 841.46 432.13 C 840.16 433.62 838.87 435.11 837.57 436.59 C 837.00 435.25 836.44 433.91 835.91 432.58 C 831.29 433.01 826.70 432.02 822.13 432.82 C 822.39 429.85 822.54 426.88 822.59 423.90 C 821.44 424.68 820.31 425.47 819.18 426.25 C 815.19 423.26 811.09 420.10 809.08 415.38 C 822.00 402.28 832.58 386.95 840.53 370.37 C 849.08 353.14 854.34 334.49 857.49 315.56 C 863.35 314.92 861.17 308.45 861.96 304.40 C 866.46 305.09 870.45 307.30 872.82 311.27 C 872.74 308.76 872.66 306.26 872.56 303.75 C 874.86 304.61 877.12 305.56 879.35 306.59 C 878.77 303.36 878.06 300.14 877.12 296.99 C 878.80 298.30 880.49 299.59 882.18 300.90 C 881.44 297.80 880.73 294.70 880.03 291.60 C 887.79 286.45 888.41 301.14 895.88 297.58 C 895.44 293.75 894.90 289.93 894.28 286.13 C 895.66 287.50 897.06 288.87 898.48 290.24 C 899.09 283.59 897.77 277.05 896.46 270.58 C 899.16 273.17 901.69 275.92 904.31 278.61 C 905.93 275.11 904.69 271.36 904.14 267.78 C 908.44 271.16 910.12 276.62 914.04 280.33 C 913.80 277.02 913.23 273.76 912.60 270.51 C 916.58 272.42 918.17 276.86 921.57 279.49 C 920.61 276.50 919.67 273.49 918.89 270.45 C 920.63 270.49 922.38 270.53 924.13 270.56 Z" />
</g>
<g id="#559ebeff">
<path fill="#559ebe" opacity="1.00" d=" M 422.11 296.44 C 424.39 289.24 427.01 282.15 429.76 275.11 C 432.63 278.31 436.15 280.81 439.85 282.95 C 442.02 281.38 444.21 279.85 446.28 278.15 C 424.64 308.29 413.71 344.69 409.30 381.21 C 409.07 352.50 413.94 323.91 422.11 296.44 Z" />
</g>
<g id="#85c7c5ff">
<path fill="#85c7c5" opacity="1.00" d=" M 543.20 326.30 C 575.14 295.59 618.64 276.03 663.37 277.30 C 686.03 278.84 709.03 284.68 727.57 298.31 C 746.82 312.32 761.05 333.39 765.10 357.01 C 766.71 365.66 766.13 374.48 766.50 383.23 C 766.29 384.67 766.07 386.11 765.89 387.57 C 764.35 381.19 765.65 374.48 763.62 368.18 C 756.47 334.03 722.27 310.54 688.50 309.25 C 652.62 306.04 617.97 322.51 591.64 345.86 C 579.99 347.78 568.81 343.13 558.04 339.39 C 551.99 338.96 545.55 336.60 542.59 330.92 C 539.66 332.98 536.63 334.88 533.60 336.79 C 536.65 333.16 539.77 329.58 543.20 326.30 Z" />
</g>
<g id="#549fbeff">
<path fill="#549fbe" opacity="1.00" d=" M 804.42 276.76 C 808.22 277.89 811.53 280.09 814.92 282.07 C 822.17 285.09 830.94 284.55 837.27 289.68 C 843.59 288.57 849.02 294.11 855.25 292.25 C 857.68 291.50 857.94 288.84 858.28 286.71 C 856.89 286.68 855.52 286.64 854.15 286.62 C 854.98 285.81 855.79 285.00 856.64 284.19 C 859.71 286.07 859.03 290.21 859.56 293.30 C 859.42 300.76 858.53 308.18 857.49 315.56 C 854.34 334.49 849.08 353.14 840.53 370.37 C 835.76 362.96 825.91 364.45 818.76 361.30 C 813.01 357.51 805.82 355.30 799.00 357.23 C 800.78 349.32 802.75 341.42 803.62 333.34 C 806.47 314.61 806.52 295.57 804.42 276.76 Z" />
</g>
<g id="#edeff0ff">
<path fill="#edeff0" opacity="1.00" d=" M 737.91 286.88 C 746.81 296.91 754.12 308.32 759.68 320.52 C 768.32 340.05 771.13 362.30 766.50 383.23 C 766.13 374.48 766.71 365.66 765.10 357.01 C 761.05 333.39 746.82 312.32 727.57 298.31 C 728.28 296.06 729.02 293.83 729.79 291.61 C 733.05 291.10 736.26 289.99 737.91 286.88 Z" />
</g>
<g id="#509abaff">
<path fill="#509aba" opacity="1.00" d=" M 591.64 345.86 C 617.97 322.51 652.62 306.04 688.50 309.25 C 690.98 310.12 693.48 310.94 696.02 311.66 C 682.43 319.00 665.37 317.55 652.61 326.85 C 628.68 337.77 609.38 357.64 597.21 380.80 C 594.29 386.54 592.05 392.59 589.11 398.32 C 588.57 394.18 589.47 390.13 591.92 386.74 C 591.13 386.26 590.36 385.80 589.59 385.34 C 587.60 387.42 584.92 387.79 582.23 387.07 C 582.98 386.07 583.74 385.07 584.52 384.08 C 577.43 383.15 571.95 377.91 567.81 372.44 C 574.64 362.65 583.10 354.15 591.64 345.86 Z" />
</g>
<g id="#63adc2ff">
<path fill="#63adc2" opacity="1.00" d=" M 688.50 309.25 C 722.27 310.54 756.47 334.03 763.62 368.18 C 765.65 374.48 764.35 381.19 765.89 387.57 C 765.78 389.46 765.04 391.21 764.18 392.87 C 754.99 389.12 747.72 381.90 738.32 378.60 C 733.44 377.35 735.10 369.39 729.50 369.48 C 724.66 361.51 716.33 355.89 707.02 354.79 C 704.48 350.95 701.47 347.23 696.80 346.05 C 689.18 340.24 682.80 331.52 673.15 328.98 C 673.23 328.71 673.37 328.16 673.44 327.89 L 673.26 327.91 C 669.36 327.03 660.40 330.42 660.95 324.00 C 658.29 325.28 655.46 326.15 652.61 326.85 C 665.37 317.55 682.43 319.00 696.02 311.66 C 693.48 310.94 690.98 310.12 688.50 309.25 Z" />
</g>
<g id="#59a3beff">
<path fill="#59a3be" opacity="1.00" d=" M 774.41 313.87 C 785.77 350.30 780.27 394.46 751.35 421.36 C 740.91 418.11 733.29 409.70 722.96 406.44 C 733.55 397.63 736.19 381.41 729.50 369.48 C 735.10 369.39 733.44 377.35 738.32 378.60 C 747.72 381.90 754.99 389.12 764.18 392.87 C 765.04 391.21 765.78 389.46 765.89 387.57 C 766.07 386.11 766.29 384.67 766.50 383.23 C 771.13 362.30 768.32 340.05 759.68 320.52 C 764.25 319.64 768.79 318.55 773.26 317.24 C 773.63 316.11 774.01 314.99 774.41 313.87 Z" />
</g>
<g id="#61a8c0ff">
<path fill="#61a8c0" opacity="1.00" d=" M 652.61 326.85 C 655.46 326.15 658.29 325.28 660.95 324.00 C 660.40 330.42 669.36 327.03 673.26 327.91 C 647.92 338.24 627.62 359.01 616.92 384.09 C 612.05 382.22 607.11 380.57 602.31 378.52 C 602.42 379.43 602.55 380.35 602.68 381.28 C 600.85 381.11 599.03 380.95 597.21 380.80 C 609.38 357.64 628.68 337.77 652.61 326.85 Z" />
</g>
<g id="#e9eaebff">
<path fill="#e9eaeb" opacity="1.00" d=" M 616.92 384.09 C 627.62 359.01 647.92 338.24 673.26 327.91 L 673.44 327.89 C 673.37 328.16 673.23 328.71 673.15 328.98 C 654.78 337.84 641.05 354.58 633.13 373.13 C 625.38 390.91 623.76 410.85 625.97 429.96 C 622.81 428.45 619.53 427.21 616.19 426.20 C 616.23 428.15 616.30 430.11 616.39 432.07 C 612.45 435.21 606.59 435.25 604.04 440.15 L 604.07 439.20 C 604.96 420.26 609.38 401.48 616.92 384.09 Z" />
</g>
<g id="#58a1bdff">
<path fill="#58a1bd" opacity="1.00" d=" M 633.13 373.13 C 641.05 354.58 654.78 337.84 673.15 328.98 C 682.80 331.52 689.18 340.24 696.80 346.05 C 701.47 347.23 704.48 350.95 707.02 354.79 C 695.59 353.58 684.08 359.68 678.45 369.65 C 668.93 367.28 662.76 359.56 655.05 354.24 C 644.90 365.75 642.52 382.25 643.52 397.09 C 644.76 429.04 661.98 457.98 684.40 479.85 C 681.24 480.16 677.76 480.32 675.98 477.20 C 672.88 482.16 672.97 488.34 670.55 493.52 C 666.50 497.06 661.97 500.14 657.11 502.49 C 652.46 496.51 648.20 490.23 644.36 483.71 C 634.74 467.25 627.99 448.99 625.97 429.96 C 623.76 410.85 625.38 390.91 633.13 373.13 Z" />
</g>
<g id="#7fc4c5ff">
<path fill="#7fc4c5" opacity="1.00" d=" M 533.60 336.79 C 536.63 334.88 539.66 332.98 542.59 330.92 C 545.55 336.60 551.99 338.96 558.04 339.39 C 568.81 343.13 579.99 347.78 591.64 345.86 C 583.10 354.15 574.64 362.65 567.81 372.44 C 559.92 382.95 553.18 394.32 547.66 406.24 C 542.82 403.54 539.64 398.23 534.09 396.85 C 522.84 393.50 511.39 390.92 499.93 388.61 C 508.42 369.78 519.50 351.94 533.60 336.79 Z" />
</g>
<g id="#85c8c6ff">
<path fill="#85c8c6" opacity="1.00" d=" M 996.45 345.76 C 1003.98 400.14 995.16 456.16 973.20 506.34 C 948.25 559.85 907.39 605.98 856.70 636.32 C 854.20 636.55 851.81 637.36 849.64 638.62 C 805.04 661.80 750.65 666.79 703.44 648.47 C 667.92 634.88 637.03 609.85 615.40 578.67 C 622.43 582.14 630.95 582.62 636.82 588.21 C 642.02 582.48 649.73 582.55 656.52 585.05 C 654.85 582.50 653.83 579.61 653.01 576.70 C 677.72 603.63 709.92 624.46 745.98 631.96 C 769.39 637.10 794.04 637.20 817.37 631.59 C 847.10 624.61 874.62 609.64 897.67 589.74 C 925.74 564.78 948.35 533.58 963.16 499.07 C 942.42 526.16 915.20 548.35 883.44 561.18 C 881.97 557.73 881.37 550.97 876.28 554.57 C 877.08 550.03 876.85 545.23 879.19 541.11 C 879.10 534.11 879.90 527.17 880.56 520.21 C 879.60 519.33 878.65 518.45 877.71 517.58 C 877.72 516.75 877.74 515.93 877.77 515.12 C 894.25 508.82 909.95 500.42 924.11 489.88 C 945.73 473.99 963.82 453.16 976.29 429.38 C 990.05 403.82 996.33 374.68 996.45 345.76 Z" />
</g>
<g id="#4d94b8ff">
<path fill="#4d94b8" opacity="1.00" d=" M 655.05 354.24 C 662.76 359.56 668.93 367.28 678.45 369.65 C 671.37 382.13 674.99 399.19 686.57 407.67 C 682.01 409.65 674.23 414.05 671.24 407.75 C 668.92 403.46 665.21 400.23 660.81 398.20 C 655.87 395.89 652.70 390.50 647.16 389.47 C 644.37 389.87 644.46 393.33 643.83 395.43 L 643.52 397.09 C 642.52 382.25 644.90 365.75 655.05 354.24 Z" />
</g>
<g id="#fffffeff">
<path fill="#fffffe" opacity="1.00" d=" M 678.45 369.65 C 684.08 359.68 695.59 353.58 707.02 354.79 C 716.33 355.89 724.66 361.51 729.50 369.48 C 736.19 381.41 733.55 397.63 722.96 406.44 C 714.52 413.45 702.28 415.34 692.21 410.86 C 690.26 409.92 688.37 408.86 686.57 407.67 C 674.99 399.19 671.37 382.13 678.45 369.65 Z" />
</g>
<g id="#4e97b9ff">
<path fill="#4e97b9" opacity="1.00" d=" M 799.00 357.23 C 805.82 355.30 813.01 357.51 818.76 361.30 C 825.91 364.45 835.76 362.96 840.53 370.37 C 832.58 386.95 822.00 402.28 809.08 415.38 C 805.31 419.10 801.34 422.61 797.21 425.92 C 788.70 424.24 782.62 417.65 775.14 413.86 C 770.21 411.33 766.87 417.35 762.83 419.10 C 780.42 402.39 793.48 380.96 799.00 357.23 Z" />
</g>
<g id="#478fb7ff">
<path fill="#478fb7" opacity="1.00" d=" M 547.66 406.24 C 553.18 394.32 559.92 382.95 567.81 372.44 C 571.95 377.91 577.43 383.15 584.52 384.08 C 583.74 385.07 582.98 386.07 582.23 387.07 C 584.92 387.79 587.60 387.42 589.59 385.34 C 590.36 385.80 591.13 386.26 591.92 386.74 C 589.47 390.13 588.57 394.18 589.11 398.32 C 584.19 411.98 580.51 426.16 579.19 440.65 C 578.36 447.86 578.19 455.11 577.77 462.35 C 575.64 465.01 575.39 468.45 574.98 471.69 C 571.07 470.64 566.76 470.10 563.54 467.47 C 563.39 464.71 565.88 462.94 567.47 461.03 C 563.71 460.08 559.86 459.58 556.07 458.77 C 551.60 457.79 547.92 454.13 543.14 454.47 C 539.73 454.61 536.28 454.45 533.08 453.17 C 533.39 451.04 533.70 448.91 534.09 446.80 C 537.14 432.84 541.79 419.26 547.66 406.24 Z" />
</g>
<g id="#69b0c1ff">
<path fill="#69b0c1" opacity="1.00" d=" M 602.31 378.52 C 607.11 380.57 612.05 382.22 616.92 384.09 C 609.38 401.48 604.96 420.26 604.07 439.20 C 603.20 438.27 602.34 437.35 601.48 436.43 C 599.56 437.46 597.64 438.49 595.74 439.54 C 594.42 439.20 593.11 438.87 591.81 438.54 C 590.21 439.57 588.61 440.58 587.01 441.59 C 584.44 441.02 581.82 440.70 579.19 440.65 C 580.51 426.16 584.19 411.98 589.11 398.32 C 592.05 392.59 594.29 386.54 597.21 380.80 C 599.03 380.95 600.85 381.11 602.68 381.28 C 602.55 380.35 602.42 379.43 602.31 378.52 Z" />
</g>
<g id="#75b9c4ff">
<path fill="#75b9c4" opacity="1.00" d=" M 499.93 388.61 C 511.39 390.92 522.84 393.50 534.09 396.85 C 539.64 398.23 542.82 403.54 547.66 406.24 C 541.79 419.26 537.14 432.84 534.09 446.80 C 527.68 447.43 521.27 447.33 514.87 446.79 C 514.57 445.03 514.29 443.28 514.02 441.53 C 506.08 438.95 498.22 435.97 489.94 434.44 C 487.86 434.97 486.46 436.96 484.80 438.23 C 487.54 421.10 492.73 404.38 499.93 388.61 Z" />
</g>
<g id="#458ab5ff">
<path fill="#458ab5" opacity="1.00" d=" M 647.16 389.47 C 652.70 390.50 655.87 395.89 660.81 398.20 C 665.21 400.23 668.92 403.46 671.24 407.75 C 674.23 414.05 682.01 409.65 686.57 407.67 C 688.37 408.86 690.26 409.92 692.21 410.86 C 689.92 413.06 687.60 415.40 686.75 418.55 C 690.54 420.70 694.62 422.20 698.77 423.48 C 703.90 425.08 705.50 432.14 711.30 432.29 C 715.92 432.53 718.34 437.13 722.22 439.06 C 717.82 439.97 713.38 440.67 709.02 441.76 C 719.38 441.99 729.33 438.62 738.80 434.75 C 743.89 441.43 751.74 444.51 759.48 446.99 C 751.08 449.99 742.35 452.16 733.46 453.02 C 710.27 455.58 685.94 448.59 668.43 432.98 C 660.70 425.61 655.25 416.32 650.25 406.99 C 650.07 407.57 649.73 408.73 649.56 409.30 C 647.30 404.81 647.39 399.22 643.83 395.43 C 644.46 393.33 644.37 389.87 647.16 389.47 Z" />
</g>
<g id="#4087b4ff">
<path fill="#4087b4" opacity="1.00" d=" M 643.83 395.43 C 647.39 399.22 647.30 404.81 649.56 409.30 C 657.70 437.11 677.88 460.74 703.69 473.77 C 722.54 483.70 743.77 488.90 764.99 490.06 C 771.78 490.15 778.60 490.32 785.38 489.84 C 788.88 495.22 792.85 500.15 797.42 504.59 C 799.53 510.80 806.92 511.40 810.16 516.69 C 814.05 522.23 821.31 522.95 826.46 526.85 C 820.23 527.24 814.01 527.93 807.76 528.00 C 792.61 527.08 777.40 525.74 762.68 521.82 C 746.52 517.43 730.81 511.28 716.23 502.99 C 704.77 496.51 694.48 488.25 684.40 479.85 C 661.98 457.98 644.76 429.04 643.52 397.09 L 643.83 395.43 Z" />
</g>
<g id="#56a0bcff">
<path fill="#56a0bc" opacity="1.00" d=" M 650.25 406.99 C 655.25 416.32 660.70 425.61 668.43 432.98 C 680.72 447.40 697.81 456.97 715.77 462.44 C 712.00 466.49 707.40 469.65 703.69 473.77 C 677.88 460.74 657.70 437.11 649.56 409.30 C 649.73 408.73 650.07 407.57 650.25 406.99 Z" />
</g>
<g id="#4e95b8ff">
<path fill="#4e95b8" opacity="1.00" d=" M 692.21 410.86 C 702.28 415.34 714.52 413.45 722.96 406.44 C 733.29 409.70 740.91 418.11 751.35 421.36 C 742.96 429.07 733.33 435.99 722.22 439.06 C 718.34 437.13 715.92 432.53 711.30 432.29 C 705.50 432.14 703.90 425.08 698.77 423.48 C 694.62 422.20 690.54 420.70 686.75 418.55 C 687.60 415.40 689.92 413.06 692.21 410.86 Z" />
</g>
<g id="#478eb6ff">
<path fill="#478eb6" opacity="1.00" d=" M 762.83 419.10 C 766.87 417.35 770.21 411.33 775.14 413.86 C 782.62 417.65 788.70 424.24 797.21 425.92 C 792.22 429.82 787.03 433.47 781.53 436.61 C 774.49 440.69 767.14 444.26 759.48 446.99 C 751.74 444.51 743.89 441.43 738.80 434.75 C 747.64 430.95 755.34 425.04 762.83 419.10 Z" />
</g>
<g id="#ececedff">
<path fill="#ececed" opacity="1.00" d=" M 797.21 425.92 C 801.34 422.61 805.31 419.10 809.08 415.38 C 811.09 420.10 815.19 423.26 819.18 426.25 C 820.31 425.47 821.44 424.68 822.59 423.90 C 822.54 426.88 822.39 429.85 822.13 432.82 C 826.70 432.02 831.29 433.01 835.91 432.58 C 836.44 433.91 837.00 435.25 837.57 436.59 C 838.87 435.11 840.16 433.62 841.46 432.13 C 842.24 434.91 843.66 437.46 846.08 439.14 C 834.67 446.45 822.51 452.67 809.71 457.15 C 808.99 452.39 804.06 449.32 799.59 451.39 C 799.22 449.35 799.58 446.58 797.24 445.66 C 791.85 442.89 786.69 439.74 781.53 436.61 C 787.03 433.47 792.22 429.82 797.21 425.92 Z" />
<path fill="#ececed" opacity="1.00" d=" M 473.56 455.27 C 474.03 452.22 474.94 449.24 476.75 446.70 C 478.56 449.36 480.41 452.02 482.40 454.56 C 480.10 484.26 483.13 514.65 493.48 542.69 C 495.67 548.90 498.02 555.07 500.87 561.02 C 496.20 563.00 492.28 567.54 486.77 566.60 C 472.59 549.62 460.41 531.00 450.40 511.29 C 444.90 500.21 440.00 488.83 436.33 477.01 C 436.94 476.97 438.16 476.90 438.76 476.86 C 440.79 478.96 442.84 481.04 444.91 483.10 C 444.83 479.63 443.94 475.95 445.47 472.66 C 449.80 479.73 453.38 488.00 459.69 493.29 C 459.33 490.02 458.71 486.78 458.01 483.56 C 459.29 483.95 460.57 484.34 461.85 484.73 C 459.55 477.69 457.68 470.09 460.40 462.86 C 462.20 465.96 464.00 469.07 465.94 472.10 C 467.25 471.78 468.57 471.47 469.90 471.17 C 471.45 472.85 473.01 474.53 474.56 476.23 C 473.56 468.99 471.81 461.87 470.87 454.62 C 471.75 454.83 472.66 455.05 473.56 455.27 Z" />
<path fill="#ececed" opacity="1.00" d=" M 644.36 483.71 C 648.20 490.23 652.46 496.51 657.11 502.49 C 662.12 508.89 667.54 514.97 673.23 520.77 C 673.58 523.89 671.95 526.46 669.33 528.08 C 671.12 530.10 673.68 531.06 676.10 532.11 C 671.82 532.88 667.25 531.10 663.25 533.30 C 660.67 534.61 657.73 534.32 654.95 534.27 C 659.96 536.71 665.43 537.98 670.41 540.49 C 666.50 542.27 662.20 540.28 658.19 539.89 C 662.60 544.01 667.31 547.89 673.14 549.81 C 666.35 550.35 659.72 548.62 653.00 548.07 C 656.17 550.01 659.34 551.97 662.40 554.11 C 659.05 556.37 655.15 557.47 651.27 558.38 C 652.72 561.22 655.28 563.73 655.87 566.87 C 654.92 570.90 649.98 569.49 647.05 569.26 C 636.93 556.60 628.67 542.55 621.65 527.96 C 619.43 523.21 617.54 518.31 615.71 513.39 C 617.56 513.84 619.42 514.29 621.29 514.76 C 622.42 512.09 622.46 509.16 622.54 506.31 C 625.03 506.72 627.51 507.19 629.98 507.73 C 628.43 506.35 626.89 504.94 625.37 503.53 C 625.51 503.33 625.79 502.94 625.92 502.75 C 626.78 502.86 627.66 502.98 628.54 503.10 C 628.88 502.29 629.22 501.49 629.58 500.69 C 631.47 501.04 633.37 501.37 635.29 501.70 C 634.13 498.22 632.31 495.02 630.21 492.04 C 633.02 493.03 635.87 493.92 638.74 494.74 C 638.24 493.45 637.76 492.17 637.27 490.90 C 641.01 490.14 642.75 486.77 644.36 483.71 Z" />
</g>
<g id="#77bbc4ff">
<path fill="#77bbc4" opacity="1.00" d=" M 868.81 421.93 C 871.38 420.28 874.18 419.07 877.04 418.01 C 878.33 423.69 886.28 424.73 885.42 431.38 C 886.94 432.48 888.46 433.57 890.00 434.66 C 888.03 438.32 886.15 442.32 887.96 446.49 C 886.28 447.92 884.66 449.42 882.97 450.83 C 862.86 466.03 839.92 477.65 815.53 484.13 C 813.92 483.59 812.32 483.06 810.72 482.53 C 810.44 479.57 810.72 476.38 809.37 473.65 C 807.37 470.44 802.87 471.17 800.42 468.54 C 797.94 466.29 795.23 464.29 792.37 462.57 C 798.22 461.02 803.99 459.14 809.71 457.15 C 822.51 452.67 834.67 446.45 846.08 439.14 C 854.17 434.11 861.44 427.94 868.81 421.93 Z" />
<path fill="#77bbc4" opacity="1.00" d=" M 592.61 486.85 C 597.02 484.22 601.95 481.63 607.27 482.78 C 609.34 493.17 612.04 503.45 615.71 513.39 C 617.54 518.31 619.43 523.21 621.65 527.96 C 616.62 530.43 610.20 529.72 606.27 534.28 C 603.06 538.25 597.42 536.16 593.41 538.67 C 586.38 522.13 581.77 504.58 579.59 486.73 C 583.93 486.03 588.51 484.28 592.61 486.85 Z" />
</g>
<g id="#f2f3f3ff">
<path fill="#f2f3f3" opacity="1.00" d=" M 616.19 426.20 C 619.53 427.21 622.81 428.45 625.97 429.96 C 627.99 448.99 634.74 467.25 644.36 483.71 C 642.75 486.77 641.01 490.14 637.27 490.90 C 637.76 492.17 638.24 493.45 638.74 494.74 C 635.87 493.92 633.02 493.03 630.21 492.04 C 632.31 495.02 634.13 498.22 635.29 501.70 C 633.37 501.37 631.47 501.04 629.58 500.69 C 629.22 501.49 628.88 502.29 628.54 503.10 C 627.66 502.98 626.78 502.86 625.92 502.75 C 625.79 502.94 625.51 503.33 625.37 503.53 C 626.89 504.94 628.43 506.35 629.98 507.73 C 627.51 507.19 625.03 506.72 622.54 506.31 C 622.46 509.16 622.42 512.09 621.29 514.76 C 619.42 514.29 617.56 513.84 615.71 513.39 C 612.04 503.45 609.34 493.17 607.27 482.78 C 604.62 468.74 603.47 454.43 604.04 440.15 C 606.59 435.25 612.45 435.21 616.39 432.07 C 616.30 430.11 616.23 428.15 616.19 426.20 Z" />
<path fill="#f2f3f3" opacity="1.00" d=" M 759.48 446.99 C 767.14 444.26 774.49 440.69 781.53 436.61 C 786.69 439.74 791.85 442.89 797.24 445.66 C 799.58 446.58 799.22 449.35 799.59 451.39 C 804.06 449.32 808.99 452.39 809.71 457.15 C 803.99 459.14 798.22 461.02 792.37 462.57 C 785.78 464.19 779.07 465.27 772.39 466.42 C 761.24 467.69 749.96 468.13 738.78 467.00 C 740.63 460.90 733.79 458.37 733.46 453.02 C 742.35 452.16 751.08 449.99 759.48 446.99 Z" />
<path fill="#f2f3f3" opacity="1.00" d=" M 486.77 566.60 C 492.28 567.54 496.20 563.00 500.87 561.02 C 503.46 566.45 506.42 571.71 509.46 576.91 C 517.49 590.24 527.13 602.65 538.10 613.69 C 529.46 607.88 521.32 601.33 513.61 594.33 C 504.74 586.29 496.34 577.73 488.53 568.66 C 487.94 567.97 487.35 567.28 486.77 566.60 Z" />
</g>
<g id="#ebeceeff">
<path fill="#ebecee" opacity="1.00" d=" M 715.77 462.44 C 697.81 456.97 680.72 447.40 668.43 432.98 C 685.94 448.59 710.27 455.58 733.46 453.02 C 733.79 458.37 740.63 460.90 738.78 467.00 C 730.97 466.29 723.31 464.53 715.77 462.44 Z" />
</g>
<g id="#68aec1ff">
<path fill="#68aec1" opacity="1.00" d=" M 484.80 438.23 C 486.46 436.96 487.86 434.97 489.94 434.44 C 498.22 435.97 506.08 438.95 514.02 441.53 C 514.29 443.28 514.57 445.03 514.87 446.79 C 521.27 447.33 527.68 447.43 534.09 446.80 C 533.70 448.91 533.39 451.04 533.08 453.17 C 528.69 478.13 528.63 503.90 533.41 528.81 C 528.64 529.55 523.49 530.56 520.53 534.81 C 519.32 533.64 518.12 532.47 516.91 531.31 C 513.88 532.24 510.70 532.52 507.57 532.05 C 502.67 535.34 498.29 539.30 493.48 542.69 C 483.13 514.65 480.10 484.26 482.40 454.56 C 482.98 449.09 483.90 443.66 484.80 438.23 Z" />
</g>
<g id="#71b7c3ff">
<path fill="#71b7c3" opacity="1.00" d=" M 595.74 439.54 C 597.64 438.49 599.56 437.46 601.48 436.43 C 602.34 437.35 603.20 438.27 604.07 439.20 L 604.04 440.15 C 603.47 454.43 604.62 468.74 607.27 482.78 C 601.95 481.63 597.02 484.22 592.61 486.85 C 588.51 484.28 583.93 486.03 579.59 486.73 C 578.60 478.64 578.00 470.50 577.77 462.35 C 578.19 455.11 578.36 447.86 579.19 440.65 C 581.82 440.70 584.44 441.02 587.01 441.59 C 588.61 440.58 590.21 439.57 591.81 438.54 C 593.11 438.87 594.42 439.20 595.74 439.54 Z" />
</g>
<g id="#ebebebff">
</g>
<g id="#4c95b8ff">
<path fill="#4c95b8" opacity="1.00" d=" M 815.53 484.13 C 839.92 477.65 862.86 466.03 882.97 450.83 C 883.43 450.92 884.34 451.10 884.79 451.19 C 883.49 452.75 882.15 454.28 880.79 455.78 C 893.63 457.80 900.40 469.85 910.32 476.82 C 914.96 481.10 916.64 489.49 924.11 489.88 C 909.95 500.42 894.25 508.82 877.77 515.12 C 861.27 521.18 844.04 525.66 826.46 526.85 C 821.31 522.95 814.05 522.23 810.16 516.69 C 806.92 511.40 799.53 510.80 797.42 504.59 C 792.85 500.15 788.88 495.22 785.38 489.84 C 795.47 488.17 805.74 487.24 815.53 484.13 Z" />
</g>
<g id="#3f85b6ff">
<path fill="#3f85b6" opacity="1.00" d=" M 533.08 453.17 C 536.28 454.45 539.73 454.61 543.14 454.47 C 547.92 454.13 551.60 457.79 556.07 458.77 C 559.86 459.58 563.71 460.08 567.47 461.03 C 565.88 462.94 563.39 464.71 563.54 467.47 C 566.76 470.10 571.07 470.64 574.98 471.69 C 575.39 468.45 575.64 465.01 577.77 462.35 C 578.00 470.50 578.60 478.64 579.59 486.73 C 581.77 504.58 586.38 522.13 593.41 538.67 C 599.29 552.73 606.40 566.35 615.40 578.67 C 637.03 609.85 667.92 634.88 703.44 648.47 C 750.65 666.79 805.04 661.80 849.64 638.62 C 851.81 637.36 854.20 636.55 856.70 636.32 C 844.84 643.67 832.20 649.66 819.48 655.36 C 774.02 673.66 724.22 682.24 675.35 676.58 C 666.05 672.85 656.15 670.88 646.87 667.09 C 598.45 648.92 560.28 608.18 542.38 559.99 C 538.45 549.89 535.79 539.36 533.41 528.81 C 528.63 503.90 528.69 478.13 533.08 453.17 Z" />
</g>
<g id="#62a9bfff">
<path fill="#62a9bf" opacity="1.00" d=" M 715.77 462.44 C 723.31 464.53 730.97 466.29 738.78 467.00 C 749.96 468.13 761.24 467.69 772.39 466.42 C 771.00 469.79 767.54 471.19 764.60 472.86 C 765.76 474.28 766.77 475.84 767.31 477.62 C 764.83 478.49 762.38 479.44 759.97 480.49 C 761.96 483.50 763.68 486.69 764.99 490.06 C 743.77 488.90 722.54 483.70 703.69 473.77 C 707.40 469.65 712.00 466.49 715.77 462.44 Z" />
</g>
<g id="#6bb2c1ff">
<path fill="#6bb2c1" opacity="1.00" d=" M 772.39 466.42 C 779.07 465.27 785.78 464.19 792.37 462.57 C 795.23 464.29 797.94 466.29 800.42 468.54 C 802.87 471.17 807.37 470.44 809.37 473.65 C 810.72 476.38 810.44 479.57 810.72 482.53 C 812.32 483.06 813.92 483.59 815.53 484.13 C 805.74 487.24 795.47 488.17 785.38 489.84 C 778.60 490.32 771.78 490.15 764.99 490.06 C 763.68 486.69 761.96 483.50 759.97 480.49 C 762.38 479.44 764.83 478.49 767.31 477.62 C 766.77 475.84 765.76 474.28 764.60 472.86 C 767.54 471.19 771.00 469.79 772.39 466.42 Z" />
</g>
<g id="#60a7bfff">
<path fill="#60a7bf" opacity="1.00" d=" M 670.55 493.52 C 672.97 488.34 672.88 482.16 675.98 477.20 C 677.76 480.32 681.24 480.16 684.40 479.85 C 694.48 488.25 704.77 496.51 716.23 502.99 C 710.40 507.25 708.05 515.50 711.42 521.99 C 712.88 530.20 714.40 538.52 714.22 546.89 C 713.02 547.71 711.83 548.52 710.65 549.35 C 697.01 541.49 684.53 531.73 673.23 520.77 C 667.54 514.97 662.12 508.89 657.11 502.49 C 661.97 500.14 666.50 497.06 670.55 493.52 Z" />
</g>
<g id="#eeeeeeff">
<path fill="#eeeeee" opacity="1.00" d=" M 883.44 561.18 C 915.20 548.35 942.42 526.16 963.16 499.07 C 948.35 533.58 925.74 564.78 897.67 589.74 C 874.62 609.64 847.10 624.61 817.37 631.59 C 816.61 628.86 816.85 626.03 818.49 623.67 C 812.73 624.93 807.56 628.07 801.70 628.95 C 802.94 624.55 807.47 622.98 811.02 620.88 C 810.72 619.82 810.45 618.78 810.18 617.74 C 809.19 618.03 808.20 618.33 807.23 618.64 C 808.04 616.22 808.93 613.83 809.86 611.46 C 803.62 612.41 797.73 615.05 791.40 615.37 C 794.11 611.97 798.43 610.97 802.37 609.70 C 802.78 607.98 803.20 606.26 803.64 604.55 C 805.80 603.11 807.97 601.67 810.13 600.20 C 802.41 601.51 795.49 605.39 787.91 607.12 C 789.44 604.73 791.45 602.44 794.57 602.77 C 795.13 599.79 800.13 597.29 797.69 594.28 C 791.87 595.79 785.67 596.12 779.75 597.67 C 781.96 595.42 784.18 593.18 786.24 590.78 C 783.22 590.69 780.21 590.92 777.23 591.31 C 778.07 589.83 778.91 588.35 779.76 586.88 C 777.10 583.67 773.20 582.60 769.21 583.57 C 771.82 580.41 774.26 577.11 776.52 573.69 C 790.24 575.89 804.16 576.75 818.05 576.09 C 840.51 575.18 862.75 569.92 883.44 561.18 Z" />
</g>
<g id="#69b0c0ff">
<path fill="#69b0c0" opacity="1.00" d=" M 711.42 521.99 C 708.05 515.50 710.40 507.25 716.23 502.99 C 730.81 511.28 746.52 517.43 762.68 521.82 C 761.27 523.11 759.86 524.39 758.45 525.67 C 757.49 525.24 756.54 524.81 755.59 524.39 C 752.95 536.65 752.85 549.30 752.42 561.78 C 752.26 565.41 747.43 563.78 745.12 565.23 C 733.03 561.37 721.53 555.84 710.65 549.35 C 711.83 548.52 713.02 547.71 714.22 546.89 C 714.40 538.52 712.88 530.20 711.42 521.99 Z" />
</g>
<g id="#ebebecff">
</g>
<g id="#468cb6ff">
<path fill="#468cb6" opacity="1.00" d=" M 440.97 518.01 C 443.51 515.01 446.78 512.79 450.40 511.29 C 460.41 531.00 472.59 549.62 486.77 566.60 C 487.35 567.28 487.94 567.97 488.53 568.66 C 484.96 570.01 481.51 571.87 479.21 575.02 C 464.23 557.64 451.43 538.42 440.97 518.01 Z" />
</g>
<g id="#7ec2c6ff">
<path fill="#7ec2c6" opacity="1.00" d=" M 826.46 526.85 C 844.04 525.66 861.27 521.18 877.77 515.12 C 877.74 515.93 877.72 516.75 877.71 517.58 C 878.65 518.45 879.60 519.33 880.56 520.21 C 879.90 527.17 879.10 534.11 879.19 541.11 C 876.85 545.23 877.08 550.03 876.28 554.57 C 881.37 550.97 881.97 557.73 883.44 561.18 C 862.75 569.92 840.51 575.18 818.05 576.09 C 816.53 574.95 815.01 573.81 813.51 572.68 C 815.97 569.01 820.44 565.85 819.12 560.82 C 817.09 551.05 821.95 540.73 817.55 531.39 C 816.55 531.56 815.57 531.73 814.59 531.91 C 813.22 529.34 810.45 528.44 807.76 528.00 C 814.01 527.93 820.23 527.24 826.46 526.85 Z" />
</g>
<g id="#e5e5e7ff">
<path fill="#e5e5e7" opacity="1.00" d=" M 673.23 520.77 C 684.53 531.73 697.01 541.49 710.65 549.35 C 721.53 555.84 733.03 561.37 745.12 565.23 C 755.25 569.18 765.89 571.54 776.52 573.69 C 774.26 577.11 771.82 580.41 769.21 583.57 C 773.20 582.60 777.10 583.67 779.76 586.88 C 778.91 588.35 778.07 589.83 777.23 591.31 C 780.21 590.92 783.22 590.69 786.24 590.78 C 784.18 593.18 781.96 595.42 779.75 597.67 C 785.67 596.12 791.87 595.79 797.69 594.28 C 800.13 597.29 795.13 599.79 794.57 602.77 C 791.45 602.44 789.44 604.73 787.91 607.12 C 795.49 605.39 802.41 601.51 810.13 600.20 C 807.97 601.67 805.80 603.11 803.64 604.55 C 803.20 606.26 802.78 607.98 802.37 609.70 C 798.43 610.97 794.11 611.97 791.40 615.37 C 797.73 615.05 803.62 612.41 809.86 611.46 C 808.93 613.83 808.04 616.22 807.23 618.64 C 808.20 618.33 809.19 618.03 810.18 617.74 C 810.45 618.78 810.72 619.82 811.02 620.88 C 807.47 622.98 802.94 624.55 801.70 628.95 C 807.56 628.07 812.73 624.93 818.49 623.67 C 816.85 626.03 816.61 628.86 817.37 631.59 C 794.04 637.20 769.39 637.10 745.98 631.96 C 709.92 624.46 677.72 603.63 653.01 576.70 C 651.09 574.16 649.07 571.72 647.05 569.26 C 649.98 569.49 654.92 570.90 655.87 566.87 C 655.28 563.73 652.72 561.22 651.27 558.38 C 655.15 557.47 659.05 556.37 662.40 554.11 C 659.34 551.97 656.17 550.01 653.00 548.07 C 659.72 548.62 666.35 550.35 673.14 549.81 C 667.31 547.89 662.60 544.01 658.19 539.89 C 662.20 540.28 666.50 542.27 670.41 540.49 C 665.43 537.98 659.96 536.71 654.95 534.27 C 657.73 534.32 660.67 534.61 663.25 533.30 C 667.25 531.10 671.82 532.88 676.10 532.11 C 673.68 531.06 671.12 530.10 669.33 528.08 C 671.95 526.46 673.58 523.89 673.23 520.77 Z" />
</g>
<g id="#73b8c3ff">
<path fill="#73b8c3" opacity="1.00" d=" M 762.68 521.82 C 777.40 525.74 792.61 527.08 807.76 528.00 C 810.45 528.44 813.22 529.34 814.59 531.91 C 815.57 531.73 816.55 531.56 817.55 531.39 C 821.95 540.73 817.09 551.05 819.12 560.82 C 820.44 565.85 815.97 569.01 813.51 572.68 C 815.01 573.81 816.53 574.95 818.05 576.09 C 804.16 576.75 790.24 575.89 776.52 573.69 C 765.89 571.54 755.25 569.18 745.12 565.23 C 747.43 563.78 752.26 565.41 752.42 561.78 C 752.85 549.30 752.95 536.65 755.59 524.39 C 756.54 524.81 757.49 525.24 758.45 525.67 C 759.86 524.39 761.27 523.11 762.68 521.82 Z" />
</g>
<g id="#e4e5e6ff">
</g>
<g id="#7ec3c5ff">
<path fill="#7ec3c5" opacity="1.00" d=" M 606.27 534.28 C 610.20 529.72 616.62 530.43 621.65 527.96 C 628.67 542.55 636.93 556.60 647.05 569.26 C 649.07 571.72 651.09 574.16 653.01 576.70 C 653.83 579.61 654.85 582.50 656.52 585.05 C 649.73 582.55 642.02 582.48 636.82 588.21 C 630.95 582.62 622.43 582.14 615.40 578.67 C 606.40 566.35 599.29 552.73 593.41 538.67 C 597.42 536.16 603.06 538.25 606.27 534.28 Z" />
</g>
<g id="#5fa7bfff">
<path fill="#5fa7bf" opacity="1.00" d=" M 520.53 534.81 C 523.49 530.56 528.64 529.55 533.41 528.81 C 535.79 539.36 538.45 549.89 542.38 559.99 C 539.41 563.26 534.85 562.95 530.90 563.83 C 525.79 564.71 523.31 570.51 518.00 570.97 C 514.20 571.30 511.22 573.60 509.46 576.91 C 506.42 571.71 503.46 566.45 500.87 561.02 C 498.02 555.07 495.67 548.90 493.48 542.69 C 498.29 539.30 502.67 535.34 507.57 532.05 C 510.70 532.52 513.88 532.24 516.91 531.31 C 518.12 532.47 519.32 533.64 520.53 534.81 Z" />
</g>
<g id="#58a1bfff">
<path fill="#58a1bf" opacity="1.00" d=" M 530.90 563.83 C 534.85 562.95 539.41 563.26 542.38 559.99 C 560.28 608.18 598.45 648.92 646.87 667.09 C 656.15 670.88 666.05 672.85 675.35 676.58 C 646.22 674.52 617.85 666.43 590.57 656.32 C 558.72 642.75 528.91 624.16 503.68 600.36 C 507.23 598.78 510.64 596.87 513.61 594.33 C 521.32 601.33 529.46 607.88 538.10 613.69 C 527.13 602.65 517.49 590.24 509.46 576.91 C 511.22 573.60 514.20 571.30 518.00 570.97 C 523.31 570.51 525.79 564.71 530.90 563.83 Z" />
</g>
<g id="#4c93bbff">
<path fill="#4c93bb" opacity="1.00" d=" M 488.53 568.66 C 496.34 577.73 504.74 586.29 513.61 594.33 C 510.64 596.87 507.23 598.78 503.68 600.36 C 494.97 592.46 486.95 583.85 479.21 575.02 C 481.51 571.87 484.96 570.01 488.53 568.66 Z" />
</g>
<g id="#e0e1e1ff">
<path fill="#e0e1e1" opacity="1.00" d=" M 1264.92 647.30 C 1275.68 643.74 1284.26 635.27 1288.00 624.59 C 1292.06 635.27 1300.44 643.87 1310.92 648.33 C 1299.78 651.67 1291.69 660.55 1288.05 671.40 C 1284.73 665.69 1282.18 659.38 1276.80 655.19 C 1273.73 651.23 1268.13 650.98 1264.92 647.30 Z" />
</g>
<g id="#e1e2e3ff">
</g>
</svg>
